<?xml version="1.0" standalone="no"?>
<!DOCTYPE svg PUBLIC "-//W3C//DTD SVG 20010904//EN"
 "http://www.w3.org/TR/2001/REC-SVG-20010904/DTD/svg10.dtd">
<svg version="1.0" xmlns="http://www.w3.org/2000/svg"
 width="1000.000000pt" height="1000.000000pt" viewBox="0 0 1000.000000 1000.000000"
 preserveAspectRatio="xMidYMid meet">
<metadata>
Created by potrace 1.11, written by Peter Selinger 2001-2013
</metadata>
<g transform="translate(0.000000,1000.000000) scale(0.100000,-0.100000)"
fill="#000000" stroke="none">
<path d="M4900 8948 c-47 -28 -103 -61 -125 -73 -36 -19 -329 -188 -404 -232
-39 -23 -250 -144 -276 -158 -11 -6 -38 -23 -60 -36 -22 -14 -47 -29 -55 -32
-8 -4 -31 -17 -50 -28 -19 -12 -199 -116 -400 -231 -201 -116 -382 -221 -402
-234 -21 -13 -39 -24 -42 -24 -2 0 -66 -37 -142 -82 -77 -45 -155 -90 -174
-100 -19 -10 -53 -29 -75 -42 -22 -13 -51 -30 -65 -38 -29 -16 -390 -225 -525
-303 -49 -29 -173 -100 -275 -159 -102 -58 -192 -111 -200 -116 -8 -6 -22 -13
-30 -17 -8 -3 -27 -15 -42 -25 l-26 -18 0 -1994 c0 -1096 3 -1998 7 -2003 3
-5 143 -89 311 -185 168 -97 319 -184 337 -195 43 -25 247 -143 297 -172 23
-12 136 -77 251 -143 116 -67 230 -133 255 -148 25 -15 149 -87 275 -160 267
-153 674 -388 725 -418 19 -12 46 -27 60 -35 14 -7 129 -73 255 -147 127 -73
244 -140 260 -150 100 -57 366 -211 395 -228 l35 -21 50 28 c28 15 142 80 254
145 112 65 218 126 236 136 18 10 63 37 100 59 37 23 69 41 71 41 2 0 41 22
86 49 72 43 548 317 650 375 20 12 78 45 130 75 51 30 107 62 123 71 17 10
116 67 220 127 105 61 235 136 290 168 55 32 215 124 355 205 140 81 316 182
390 225 147 85 300 173 368 212 24 13 66 39 95 56 l52 32 -1 1998 c-1 1146 -5
2002 -10 2006 -5 5 -34 22 -64 38 -30 17 -152 86 -270 155 -118 68 -235 136
-260 150 -25 14 -133 76 -240 138 -107 62 -222 129 -255 148 -33 19 -76 44
-95 55 -32 19 -78 45 -140 80 -14 8 -198 114 -410 237 -212 122 -484 280 -605
350 -193 111 -506 292 -690 398 -33 19 -80 46 -105 60 -25 13 -49 28 -55 32
-5 4 -30 19 -55 32 -25 14 -81 46 -125 72 -44 25 -84 46 -90 46 -5 -1 -48 -24
-95 -52z"/>
</g>
</svg>
